<?xml version="1.0" encoding="UTF-8"?>
<svg id="Capa_2" data-name="Capa 2" xmlns="http://www.w3.org/2000/svg" viewBox="0 0 1023.76 1013.69">
  <defs>
    <style>
      .cls-1 {
        fill: #1da37a;
      }

      .cls-2 {
        letter-spacing: -.06em;
      }

      .cls-3 {
        fill: #fdf1f0;
        font-family: StorytelEuclid-Semibold, 'Storytel Euclid';
        font-size: 120.51px;
        font-weight: 600;
      }

      .cls-4 {
        letter-spacing: -.1em;
      }

      .cls-5 {
        letter-spacing: -.02em;
      }

      .cls-6 {
        letter-spacing: -.02em;
      }

      .cls-7 {
        letter-spacing: -.04em;
      }
    </style>
  </defs>
  <g id="Capa_2-2" data-name="Capa 2">
    <g id="icon">
      <path class="cls-1" d="M1012.48,649.78c-16.29-75.07-58.65-135.68-140.66-150.68,158.44-46.48,176.73-256.34,124.79-399.57C954.96-15.38,839.29-4.28,730.85,6.17c-143.86,13.88-176.18,43.23-222.66,194.51l-34.15-88.97c-25.62-66.73-88.72-88.34-156.54-90.98C202.09,16.22,80.1-10.74,29.93,108.8c-39.71,94.58-39.4,199.42-2.07,294.92,22.61,57.86,68.73,92.81,132.5,111.07-37.08,24.27-89.35,33.12-116.13,64.09C3.76,625.6,5.83,690.76,3.72,747.59c-4.83,129.99,39.13,245.83,168.7,261.57,92.91,11.31,233.15,3.86,286.45-50.78,34.66-35.54,38.13-86.13,53.58-137.26l32.82,104.86c26.48,84.63,209.95,89.58,316.85,76.37,150.79-18.62,182.27-205.61,150.37-352.59v.02Z"/>
    </g>
  </g>
</svg>